<svg viewBox="0 0 900 160" xmlns="http://www.w3.org/2000/svg">
  <!-- Background -->
  <rect width="900" height="160" fill="#0f1117"/>

  <!-- Top accent bar -->
  <rect width="900" height="3" fill="#fa582d"/>

  <!-- Bottom border -->
  <rect y="158" width="900" height="1" fill="#2a2e3f"/>

  <!-- Right-side geometric accent — echoes the cortex-background watermark -->
  <g opacity="0.07">
    <rect x="648" y="18"  width="4" height="124" fill="#3ecf8e" rx="2"/>
    <rect x="660" y="8"   width="4" height="144" fill="#3ecf8e" rx="2"/>
    <rect x="672" y="28"  width="4" height="104" fill="#3ecf8e" rx="2"/>
    <rect x="684" y="4"   width="4" height="152" fill="#3ecf8e" rx="2"/>
    <rect x="696" y="38"  width="4" height="84"  fill="#3ecf8e" rx="2"/>
    <rect x="708" y="14"  width="4" height="132" fill="#3ecf8e" rx="2"/>
    <rect x="720" y="22"  width="4" height="116" fill="#3ecf8e" rx="2"/>
    <rect x="732" y="44"  width="4" height="72"  fill="#3ecf8e" rx="2"/>
    <rect x="744" y="10"  width="4" height="140" fill="#3ecf8e" rx="2"/>
    <rect x="756" y="30"  width="4" height="100" fill="#3ecf8e" rx="2"/>
    <rect x="768" y="2"   width="4" height="156" fill="#3ecf8e" rx="2"/>
    <rect x="780" y="48"  width="4" height="64"  fill="#3ecf8e" rx="2"/>
    <rect x="792" y="20"  width="4" height="120" fill="#3ecf8e" rx="2"/>
    <rect x="804" y="34"  width="4" height="92"  fill="#3ecf8e" rx="2"/>
    <rect x="816" y="6"   width="4" height="148" fill="#3ecf8e" rx="2"/>
    <rect x="828" y="42"  width="4" height="76"  fill="#3ecf8e" rx="2"/>
    <rect x="840" y="16"  width="4" height="128" fill="#3ecf8e" rx="2"/>
    <rect x="852" y="26"  width="4" height="108" fill="#3ecf8e" rx="2"/>
    <rect x="864" y="50"  width="4" height="60"  fill="#3ecf8e" rx="2"/>
    <rect x="876" y="12"  width="4" height="136" fill="#3ecf8e" rx="2"/>
    <rect x="888" y="36"  width="4" height="88"  fill="#3ecf8e" rx="2"/>
  </g>

  <!-- Gradient fade over the geometric accent -->
  <defs>
    <linearGradient id="fade-r" x1="0%" y1="0%" x2="100%" y2="0%">
      <stop offset="0%"   stop-color="#0f1117" stop-opacity="1"/>
      <stop offset="100%" stop-color="#0f1117" stop-opacity="0"/>
    </linearGradient>
  </defs>
  <rect x="580" y="3" width="160" height="154" fill="url(#fade-r)"/>

  <!-- Orange accent dot -->
  <circle cx="80" cy="80" r="3" fill="#fa582d" opacity="0.6"/>

  <!-- Title -->
  <text x="110" y="72"
        font-family="'Inter', -apple-system, BlinkMacSystemFont, 'Segoe UI', sans-serif"
        font-size="30" font-weight="800" fill="#eef0f8"
        letter-spacing="-0.8">PCS SWAT Release Notes</text>

  <!-- Subtitle -->
  <text x="110" y="104"
        font-family="'Inter', -apple-system, BlinkMacSystemFont, 'Segoe UI', sans-serif"
        font-size="14" fill="#7b82a0">
    Centralized release notes for all PCS SWAT tools — Cortex Catalyst and more
  </text>

  <!-- Org tag -->
  <rect x="110" y="120" width="120" height="22" rx="11" fill="#1a1d27" stroke="#2a2e3f" stroke-width="1"/>
  <text x="170" y="135"
        font-family="'Inter', -apple-system, BlinkMacSystemFont, 'Segoe UI', sans-serif"
        font-size="11" font-weight="600" fill="#7b82a0"
        text-anchor="middle" letter-spacing="0.06em">PCS-LAB-ORG</text>
</svg>
